<?xml version="1.0" encoding="UTF-8"?>
<svg xmlns="http://www.w3.org/2000/svg" xmlns:xlink="http://www.w3.org/1999/xlink" width="351pt" height="206pt" viewBox="0 0 351 206" version="1.1">
<g id="surface1">
<rect x="0" y="0" width="351" height="206" style="fill:rgb(100%,100%,100%);fill-opacity:0;stroke:none;"/>
<path style=" stroke:none;fill-rule:nonzero;fill:rgb(13.699341%,12.199402%,12.5%);fill-opacity:1;" d="M 39.214844 84.480469 C 35.859375 86.15625 32.519531 87.425781 30.644531 104.03125 C 39.214844 98.941406 36.269531 90.105469 44.300781 90.105469 C 46.980469 100.015625 53.675781 99.746094 60.105469 104.566406 C 57.960938 96.265625 50.195313 95.191406 50.996094 86.890625 C 64.65625 87.960938 61.710938 77.785156 69.210938 76.179688 C 60.105469 74.304688 65.191406 79.929688 49.660156 79.394531 C 55.550781 68.410156 46.980469 69.480469 45.640625 57.699219 C 42.160156 60.644531 48.320313 72.160156 42.429688 77.785156 C 38.945313 74.304688 38.410156 74.035156 21.804688 75.644531 C 32.519531 83.945313 38.144531 80.195313 39.214844 84.480469 "/>
<path style="fill:none;stroke-width:1.383;stroke-linecap:butt;stroke-linejoin:miter;stroke:rgb(13.699341%,12.199402%,12.5%);stroke-opacity:1;stroke-miterlimit:3.86371;" d="M 392.148438 1215.195313 C 358.59375 1198.4375 325.195313 1185.742188 306.445313 1019.6875 C 392.148438 1070.585938 362.695313 1158.945313 443.007813 1158.945313 C 469.804688 1059.84375 536.757813 1062.539063 601.054688 1014.335938 C 579.609375 1097.34375 501.953125 1108.085938 509.960938 1191.09375 C 646.5625 1180.390625 617.109375 1282.148438 692.109375 1298.203125 C 601.054688 1316.953125 651.914063 1260.703125 496.601563 1266.054688 C 555.507813 1375.898438 469.804688 1365.195313 456.40625 1483.007813 C 421.601563 1453.554688 483.203125 1338.398438 424.296875 1282.148438 C 389.453125 1316.953125 384.101563 1319.648438 218.046875 1303.554688 C 325.195313 1220.546875 381.445313 1258.046875 392.148438 1215.195313 Z M 392.148438 1215.195313 " transform="matrix(0.1,0,0,-0.1,0,206)"/>
<path style=" stroke:none;fill-rule:nonzero;fill:rgb(13.699341%,12.199402%,12.5%);fill-opacity:1;" d="M 81.09375 95.257813 C 81.09375 97.765625 81.425781 101.894531 78.636719 102.898438 L 78.636719 103.066406 L 89.234375 103.066406 L 89.234375 102.898438 C 86.449219 101.839844 86.78125 97.765625 86.78125 95.257813 L 86.78125 74.226563 C 86.78125 71.71875 86.449219 67.589844 89.234375 66.527344 L 89.234375 66.363281 L 78.636719 66.363281 L 78.636719 66.527344 C 81.484375 67.589844 81.09375 71.660156 81.09375 74.226563 L 81.09375 95.257813 "/>
<path style=" stroke:none;fill-rule:evenodd;fill:rgb(13.699341%,12.199402%,12.5%);fill-opacity:1;" d="M 99.46875 95.199219 C 99.46875 97.765625 99.800781 101.839844 97.011719 102.898438 L 97.011719 103.066406 L 106.21875 103.066406 C 110.398438 103.066406 114.808594 103.234375 118.710938 101.335938 C 122.449219 99.550781 125.40625 95.871094 125.40625 91.574219 C 125.40625 86.109375 121.332031 82.761719 116.3125 81.703125 C 119.492188 80.308594 121.890625 78.1875 121.890625 74.449219 C 121.890625 69.484375 117.597656 66.363281 110.234375 66.363281 L 97.011719 66.363281 L 97.011719 66.527344 C 99.859375 67.589844 99.46875 71.660156 99.46875 74.171875 Z M 105.15625 98.605469 L 105.15625 84.824219 L 109.0625 84.601563 C 113.972656 84.324219 119.214844 86.664063 119.214844 92.078125 C 119.214844 97.375 114.585938 99.496094 110.011719 99.050781 Z M 105.15625 81.144531 L 105.15625 70.210938 L 108.894531 69.820313 C 112.242188 69.484375 115.8125 71.492188 115.8125 75.34375 C 115.8125 79.917969 110.625 81.144531 106.996094 81.144531 L 105.15625 81.144531 "/>
<path style=" stroke:none;fill-rule:nonzero;fill:rgb(13.699341%,12.199402%,12.5%);fill-opacity:1;" d="M 169.089844 66.363281 L 169.089844 66.527344 C 171.9375 67.589844 171.546875 71.660156 171.546875 74.226563 L 171.546875 95.257813 C 171.546875 97.765625 171.9375 101.894531 169.089844 102.898438 L 169.089844 103.066406 L 179.742188 103.066406 L 179.742188 102.898438 C 176.898438 101.894531 177.234375 97.820313 177.234375 95.257813 L 177.234375 70.265625 C 178.519531 70.042969 179.742188 69.878906 181.027344 69.820313 C 184.765625 69.652344 188.222656 71.996094 188.222656 76.011719 C 188.222656 81.257813 183.035156 83.320313 178.574219 83.988281 L 183.703125 91.855469 L 190.511719 100.277344 C 192.183594 102.339844 194.023438 103.066406 196.980469 103.066406 L 202.113281 103.066406 C 198.933594 101.058594 195.417969 98.15625 193.074219 95.257813 L 185.042969 85.160156 C 189.617188 84.101563 193.910156 80.253906 193.910156 75.34375 C 193.910156 70.265625 189.839844 66.363281 182.367188 66.363281 L 169.089844 66.363281 "/>
<path style=" stroke:none;fill-rule:evenodd;fill:rgb(13.699341%,12.199402%,12.5%);fill-opacity:1;" d="M 222.589844 65.414063 C 210.871094 65.136719 201.671875 74.003906 201.671875 84.601563 C 201.671875 96.039063 210.984375 103.960938 222.027344 103.960938 C 233.128906 103.960938 242.558594 95.703125 242.558594 84.324219 C 242.558594 74.28125 234.300781 65.355469 222.589844 65.414063 Z M 222.195313 69.429688 C 231.011719 69.429688 236.199219 77.296875 236.199219 85.4375 C 236.199219 93.75 230.785156 99.941406 222.308594 99.941406 C 213.550781 99.941406 208.027344 91.910156 208.027344 84.101563 C 208.027344 75.679688 213.550781 69.429688 222.195313 69.429688 "/>
<path style=" stroke:none;fill-rule:nonzero;fill:rgb(13.699341%,12.199402%,12.5%);fill-opacity:1;" d="M 249.925781 102.394531 C 249.925781 108.421875 249.3125 111.769531 243.121094 115.730469 L 243.121094 115.894531 C 251.320313 115.003906 255.617188 111.769531 255.617188 105.855469 L 255.617188 74.226563 C 255.617188 71.660156 255.28125 67.589844 258.070313 66.527344 L 258.070313 66.363281 L 247.417969 66.363281 L 247.417969 66.527344 C 250.261719 67.589844 249.925781 71.660156 249.925781 74.226563 L 249.925781 102.394531 "/>
<path style=" stroke:none;fill-rule:evenodd;fill:rgb(13.699341%,12.199402%,12.5%);fill-opacity:1;" d="M 274.414063 85.160156 L 278.542969 85.160156 C 280.273438 85.160156 282.613281 85.105469 283.507813 86.722656 L 283.675781 86.722656 L 283.675781 80.808594 L 283.507813 80.808594 C 282.839844 81.144531 281.945313 81.144531 281.054688 81.144531 L 274.414063 81.144531 L 274.414063 70.769531 C 276.199219 70.433594 278.152344 70.378906 280.105469 70.378906 C 282.671875 70.378906 284.957031 70.601563 286.6875 72.609375 L 286.855469 72.609375 L 286.855469 66.082031 L 286.6875 66.082031 C 285.960938 66.472656 285.015625 66.363281 284.066406 66.363281 L 266.214844 66.363281 L 266.214844 66.527344 C 269.0625 67.589844 268.726563 71.660156 268.726563 74.226563 L 268.726563 95.257813 C 268.726563 97.765625 269.0625 101.894531 266.214844 102.898438 L 266.214844 103.066406 L 289.476563 103.066406 L 291.984375 95.757813 L 291.820313 95.757813 C 289.03125 98.214844 285.183594 99.386719 281.5 99.050781 L 274.414063 98.382813 L 274.414063 85.160156 "/>
<path style=" stroke:none;fill-rule:evenodd;fill:rgb(13.699341%,12.199402%,12.5%);fill-opacity:1;" d="M 313.425781 70.378906 L 318.445313 70.378906 C 320.285156 70.378906 322.515625 70.65625 323.242188 72.609375 L 323.410156 72.609375 L 325.191406 65.972656 L 325.027344 65.972656 C 324.300781 66.308594 323.410156 66.363281 322.460938 66.363281 L 300.261719 66.363281 C 299.535156 66.25 298.808594 66.25 298.140625 65.972656 L 297.972656 65.972656 L 296.019531 72.609375 L 296.1875 72.609375 C 297.917969 70.992188 300.425781 70.378906 302.824219 70.378906 L 307.734375 70.378906 L 307.734375 95.257813 C 307.734375 97.765625 308.070313 101.839844 305.28125 102.898438 L 305.28125 103.066406 L 316.324219 103.066406 L 316.324219 102.898438 C 313.367188 101.171875 313.425781 98.992188 313.425781 95.8125 L 313.425781 70.378906 "/>
<path style=" stroke:none;fill-rule:nonzero;fill:rgb(13.699341%,12.199402%,12.5%);fill-opacity:1;" d="M 78.851563 119.5625 L 78.851563 134.5625 C 190.261719 106.171875 222.933594 164.019531 320.417969 134.027344 L 320.417969 119.027344 C 222.933594 149.023438 190.261719 91.175781 78.851563 119.5625 "/>
<path style="fill:none;stroke-width:1.383;stroke-linecap:butt;stroke-linejoin:miter;stroke:rgb(13.699341%,12.199402%,12.5%);stroke-opacity:1;stroke-miterlimit:3.86371;" d="M 788.515625 864.375 L 788.515625 714.375 C 1902.617188 998.28125 2229.335938 419.804688 3204.179688 719.726563 L 3204.179688 869.726563 C 2229.335938 569.765625 1902.617188 1148.242188 788.515625 864.375 Z M 788.515625 864.375 " transform="matrix(0.1,0,0,-0.1,0,206)"/>
<path style=" stroke:none;fill-rule:nonzero;fill:rgb(13.699341%,12.199402%,12.5%);fill-opacity:1;" d="M 80 45.679688 L 81.953125 45.679688 L 81.953125 38.167969 L 80 38.167969 Z M 80 45.679688 "/>
<path style=" stroke:none;fill-rule:nonzero;fill:rgb(13.699341%,12.199402%,12.5%);fill-opacity:1;" d="M 84.859375 45.679688 L 86.8125 45.679688 L 86.8125 41.078125 L 86.832031 41.078125 L 90.40625 45.679688 L 92.359375 45.679688 L 92.359375 38.167969 L 90.40625 38.167969 L 90.40625 42.761719 L 90.386719 42.761719 L 86.8125 38.167969 L 84.859375 38.167969 L 84.859375 45.679688 "/>
<path style=" stroke:none;fill-rule:nonzero;fill:rgb(13.699341%,12.199402%,12.5%);fill-opacity:1;" d="M 98.296875 39.820313 L 99.914063 39.820313 L 99.914063 38.167969 L 94.734375 38.167969 L 94.734375 39.820313 L 96.347656 39.820313 L 96.347656 45.679688 L 98.296875 45.679688 L 98.296875 39.820313 "/>
<path style=" stroke:none;fill-rule:nonzero;fill:rgb(13.699341%,12.199402%,12.5%);fill-opacity:1;" d="M 106.542969 39.820313 L 106.542969 38.167969 L 102.269531 38.167969 L 102.269531 45.679688 L 106.542969 45.679688 L 106.542969 44.023438 L 104.222656 44.023438 L 104.222656 42.730469 L 106.421875 42.730469 L 106.421875 41.078125 L 104.222656 41.078125 L 104.222656 39.820313 L 106.542969 39.820313 "/>
<path style=" stroke:none;fill-rule:evenodd;fill:rgb(13.699341%,12.199402%,12.5%);fill-opacity:1;" d="M 113.28125 42.601563 C 114.347656 42.410156 114.925781 41.515625 114.925781 40.480469 C 114.925781 38.875 113.800781 38.167969 112.3125 38.167969 L 109.394531 38.167969 L 109.394531 45.679688 L 111.347656 45.679688 L 111.347656 42.789063 L 111.367188 42.789063 L 113.210938 45.679688 L 115.640625 45.679688 Z M 111.347656 39.664063 L 111.539063 39.664063 C 112.175781 39.664063 112.890625 39.78125 112.890625 40.601563 C 112.890625 41.414063 112.175781 41.535156 111.539063 41.535156 L 111.347656 41.535156 L 111.347656 39.664063 "/>
<path style=" stroke:none;fill-rule:nonzero;fill:rgb(13.699341%,12.199402%,12.5%);fill-opacity:1;" d="M 117.828125 45.679688 L 119.78125 45.679688 L 119.78125 41.078125 L 119.800781 41.078125 L 123.375 45.679688 L 125.328125 45.679688 L 125.328125 38.167969 L 123.375 38.167969 L 123.375 42.761719 L 123.355469 42.761719 L 119.78125 38.167969 L 117.828125 38.167969 L 117.828125 45.679688 "/>
<path style=" stroke:none;fill-rule:evenodd;fill:rgb(13.699341%,12.199402%,12.5%);fill-opacity:1;" d="M 132.882813 44.375 L 133.371094 45.679688 L 135.449219 45.679688 L 132.621094 38.167969 L 130.492188 38.167969 L 127.601563 45.679688 L 129.675781 45.679688 L 130.191406 44.375 Z M 132.355469 42.878906 L 130.730469 42.878906 L 131.535156 40.488281 L 131.558594 40.488281 L 132.355469 42.878906 "/>
<path style=" stroke:none;fill-rule:nonzero;fill:rgb(13.699341%,12.199402%,12.5%);fill-opacity:1;" d="M 143.09375 38.347656 C 142.515625 38.109375 141.9375 37.96875 141.3125 37.96875 C 140.253906 37.96875 139.1875 38.429688 138.453125 39.1875 C 137.734375 39.921875 137.347656 40.90625 137.347656 41.933594 C 137.347656 43.050781 137.726563 44.023438 138.550781 44.773438 C 139.328125 45.480469 140.324219 45.878906 141.371094 45.878906 C 141.976563 45.878906 142.445313 45.730469 143.09375 45.527344 L 143.09375 43.1875 C 142.6875 43.675781 142.046875 43.984375 141.410156 43.984375 C 140.195313 43.984375 139.378906 43.128906 139.378906 41.941406 C 139.378906 40.777344 140.1875 39.863281 141.382813 39.863281 C 142.046875 39.863281 142.695313 40.148438 143.09375 40.6875 L 143.09375 38.347656 "/>
<path style=" stroke:none;fill-rule:nonzero;fill:rgb(13.699341%,12.199402%,12.5%);fill-opacity:1;" d="M 145.957031 45.679688 L 147.910156 45.679688 L 147.910156 38.167969 L 145.957031 38.167969 Z M 145.957031 45.679688 "/>
<path style=" stroke:none;fill-rule:evenodd;fill:rgb(13.699341%,12.199402%,12.5%);fill-opacity:1;" d="M 154.59375 37.921875 C 152.429688 37.921875 150.4375 39.515625 150.4375 41.785156 C 150.4375 44.214844 152.183594 45.929688 154.59375 45.929688 C 157.003906 45.929688 158.746094 44.214844 158.746094 41.785156 C 158.746094 39.515625 156.753906 37.921875 154.59375 37.921875 Z M 154.59375 39.8125 C 155.757813 39.8125 156.714844 40.757813 156.714844 41.796875 C 156.714844 43.089844 155.757813 44.035156 154.59375 44.035156 C 153.425781 44.035156 152.46875 43.089844 152.46875 41.796875 C 152.46875 40.757813 153.425781 39.8125 154.59375 39.8125 "/>
<path style=" stroke:none;fill-rule:nonzero;fill:rgb(13.699341%,12.199402%,12.5%);fill-opacity:1;" d="M 161.328125 45.679688 L 163.277344 45.679688 L 163.277344 41.078125 L 163.300781 41.078125 L 166.875 45.679688 L 168.828125 45.679688 L 168.828125 38.167969 L 166.875 38.167969 L 166.875 42.761719 L 166.855469 42.761719 L 163.277344 38.167969 L 161.328125 38.167969 L 161.328125 45.679688 "/>
<path style=" stroke:none;fill-rule:evenodd;fill:rgb(13.699341%,12.199402%,12.5%);fill-opacity:1;" d="M 176.382813 44.375 L 176.867188 45.679688 L 178.949219 45.679688 L 176.121094 38.167969 L 173.988281 38.167969 L 171.101563 45.679688 L 173.175781 45.679688 L 173.691406 44.375 Z M 175.855469 42.878906 L 174.230469 42.878906 L 175.035156 40.488281 L 175.058594 40.488281 L 175.855469 42.878906 "/>
<path style=" stroke:none;fill-rule:nonzero;fill:rgb(13.699341%,12.199402%,12.5%);fill-opacity:1;" d="M 183.175781 38.167969 L 181.226563 38.167969 L 181.226563 45.679688 L 185.519531 45.679688 L 185.519531 44.023438 L 183.175781 44.023438 L 183.175781 38.167969 "/>
<path style=" stroke:none;fill-rule:evenodd;fill:rgb(13.699341%,12.199402%,12.5%);fill-opacity:1;" d="M 142.710938 85.160156 L 146.839844 85.160156 C 148.566406 85.160156 150.910156 85.105469 151.804688 86.722656 L 151.96875 86.722656 L 151.96875 80.808594 L 151.804688 80.808594 C 151.132813 81.144531 150.242188 81.144531 149.347656 81.144531 L 142.710938 81.144531 L 142.710938 70.769531 C 144.496094 70.433594 146.449219 70.378906 148.398438 70.378906 C 150.964844 70.378906 153.253906 70.601563 154.980469 72.609375 L 155.148438 72.609375 L 155.148438 66.082031 L 154.980469 66.082031 C 154.257813 66.472656 153.308594 66.363281 152.359375 66.363281 L 134.511719 66.363281 L 134.511719 66.527344 C 137.355469 67.589844 137.019531 71.660156 137.019531 74.226563 L 137.019531 95.257813 C 137.019531 97.765625 137.355469 101.894531 134.511719 102.898438 L 134.511719 103.066406 L 157.769531 103.066406 L 160.28125 95.757813 L 160.113281 95.757813 C 157.324219 98.214844 153.476563 99.386719 149.796875 99.050781 L 142.710938 98.382813 L 142.710938 85.160156 "/>
<path style=" stroke:none;fill-rule:evenodd;fill:rgb(13.699341%,12.199402%,12.5%);fill-opacity:1;" d="M 199.367188 37.078125 C 249.179688 51.003906 293.101563 46.71875 320.417969 37.078125 L 199.367188 37.078125 "/>
<path style="fill:none;stroke-width:1.383;stroke-linecap:butt;stroke-linejoin:miter;stroke:rgb(13.699341%,12.199402%,12.5%);stroke-opacity:1;stroke-miterlimit:3.86371;" d="M 1993.671875 1689.21875 C 2491.796875 1549.960938 2931.015625 1592.8125 3204.179688 1689.21875 Z M 1993.671875 1689.21875 " transform="matrix(0.1,0,0,-0.1,0,206)"/>
</g>
</svg>
