<?xml version="1.0" encoding="utf-8"?>
<!-- Generator: Adobe Illustrator 25.0.1, SVG Export Plug-In . SVG Version: 6.00 Build 0)  -->
<svg version="1.0" id="Layer_1" xmlns="http://www.w3.org/2000/svg" xmlns:xlink="http://www.w3.org/1999/xlink" x="0px" y="0px"
	 viewBox="0 0 528.9 397.7" style="enable-background:new 0 0 528.9 397.7;" xml:space="preserve">
<style type="text/css">
	.st0{fill:#231F20;}
	.st1{fill:#EEEFEF;}
	.st2{fill:#B5D5F0;}
	.st3{fill:#6CADDE;}
	.st4{fill:#D6A6CC;}
	.st5{fill:#DAE7A2;}
	.st6{fill:#91268F;}
	.st7{fill:#8DC63F;}
</style>
<desc>Created with Sketch.</desc>
<g id="Page-1">
	<g id="Desktop-HD" transform="translate(-165.000000, -12.000000)">
		<g id="Header_x2F_Brand_x5F_header_x2F_Account">
			<g id="Header_x2F_Brand_x5F_header">
				<g id="Logo" transform="translate(165.000000, 12.000000)">
					<g id="Group" transform="translate(0.000000, 6.054054)">
						<path id="Fill-10" class="st0" d="M330.5,197.7c-2-2-5.1-3.5-8.1-3.5c-2.1,0-4.8,1.2-4.8,3.6c0,6.4,21.9,1.4,21.9,16.3
							c0,10.3-10.3,13.3-19.2,13.3c-6.1,0-12.3-1.5-16.7-5.8l7.5-7.5c2.5,2.4,5.9,4.2,9.8,4.2c2.9,0,5.9-1.1,5.9-3.2
							c0-7-21.9-1.4-21.9-16.4c0-9.5,8.7-13.6,17.5-13.6c5.5,0,11.6,1.3,15.4,5.3L330.5,197.7z"/>
						<polygon id="Fill-5" class="st0" points="171.9,226.5 184.8,226.5 184.8,163.6 171.9,163.6 						"/>
						<path id="Fill-7" class="st0" d="M215.2,196.1c-6.4,0-10.3,4.2-10.3,10.2c0,6.1,3.8,10.2,10.3,10.2c6.4,0,10.3-4.2,10.3-10.2
							C225.5,200.2,221.6,196.1,215.2,196.1L215.2,196.1z M237.3,226.5h-11.8v-5.3h-0.2c-2,2.9-6.9,6.3-12.8,6.3
							c-12.3,0-20.5-8.6-20.5-20.9c0-11.2,7.2-21.5,19-21.5c5.3,0,10.3,1.4,13.2,5.3h0.2v-4.3h12.9V226.5z"/>
						<path id="Fill-8" class="st0" d="M247.4,186.1h12.9v6.5h0.2c2.7-4.9,6.3-7.5,12-7.5c1.5,0,3.1,0.1,4.3,0.4v11.4
							c-1.8-0.5-3.6-0.8-5.5-0.8c-9.8,0-11,5.5-11,13.6v16.9h-12.9C247.4,226.6,247.4,186.1,247.4,186.1z"/>
						<path id="Combined-Shape" class="st0" d="M296.5,186.1v40.4h-12.8v-40.4H296.5z M296.5,163.6v12.6h-12.8v-12.6H296.5z"/>
						<path id="Fill-3" class="st0" d="M141.7,216.5c6.4,0,10.3-4.2,10.3-10.2c0-6.1-3.9-10.2-10.3-10.2c-6.4,0-10.3,4.2-10.3,10.2
							C131.4,212.4,135.2,216.5,141.7,216.5 M141.7,185.1c12.8,0,23.1,8.3,23.1,21.2s-10.3,21.2-23.1,21.2s-23.1-8.3-23.1-21.2
							S128.8,185.1,141.7,185.1"/>
						<polygon id="Fill-2" class="st0" points="69.9,186.1 83.8,186.1 94.3,213.5 94.5,213.5 104.2,186.1 117.2,186.1 100.7,226.5 
							87.1,226.5 						"/>
					</g>
					<g id="Estrella" transform="translate(99.282984, 0.000000)">
						<polygon id="Fill-12" class="st1" points="305.9,165.2 319.4,165.2 319.4,151.7 305.9,151.7 						"/>
						<polygon id="Fill-13" class="st2" points="305.9,178.7 319.4,178.7 319.4,165.2 305.9,165.2 						"/>
						<polygon id="Fill-14" class="st3" points="305.9,192.1 319.4,192.1 319.4,178.7 305.9,178.7 						"/>
						<polygon id="Fill-15" class="st2" points="292.4,192.1 305.9,192.1 305.9,178.7 292.4,178.7 						"/>
						<polygon id="Fill-16" class="st4" points="292.4,219.1 305.9,219.1 305.9,205.6 292.4,205.6 						"/>
						<polygon id="Fill-17" class="st2" points="319.4,192.1 332.8,192.1 332.8,178.7 319.4,178.7 						"/>
						<polygon id="Fill-18" class="st5" points="319.4,219.1 332.8,219.1 332.8,205.6 319.4,205.6 						"/>
						<polygon id="Fill-19" class="st0" points="305.9,205.6 319.4,205.6 319.4,192.1 305.9,192.1 						"/>
						<polygon id="Fill-20" class="st6" points="305.9,219.1 319.4,219.1 319.4,205.6 305.9,205.6 						"/>
						<polygon id="Fill-21" class="st4" points="305.9,232.5 319.4,232.5 319.4,219.1 305.9,219.1 						"/>
						<polygon id="Fill-22" class="st1" points="305.9,246 319.4,246 319.4,232.5 305.9,232.5 						"/>
						<polygon id="Fill-23" class="st1" points="265.5,205.6 278.9,205.6 278.9,192.1 265.5,192.1 						"/>
						<polygon id="Fill-24" class="st4" points="278.9,205.6 292.4,205.6 292.4,192.1 278.9,192.1 						"/>
						<polygon id="Fill-25" class="st6" points="292.4,205.6 305.9,205.6 305.9,192.1 292.4,192.1 						"/>
						<polygon id="Fill-26" class="st7" points="319.4,205.6 332.8,205.6 332.8,192.1 319.4,192.1 						"/>
						<polygon id="Fill-27" class="st5" points="332.8,205.6 346.3,205.6 346.3,192.1 332.8,192.1 						"/>
						<polygon id="Fill-28" class="st1" points="346.3,205.6 359.8,205.6 359.8,192.1 346.3,192.1 						"/>
					</g>
				</g>
			</g>
		</g>
	</g>
</g>
</svg>
